#!OML:ASF F:\VICON\USERDATA\INSTALL\rory3\rory3.ASF
:FULLY-SPECIFIED
:DEGREES
404
root 0.263752 15.1609 -0.999931 -2.40985 2.81253 -5.41289
lowerback 1.44008 3.81126 -3.2838
upperback 2.41899 5.05548 2.18139
thorax 1.2023 2.46715 4.04081
lowerneck -21.6682 -1.03611 3.38465
upperneck 31.4732 -2.36149 -1.18991
head 14.3996 -0.742695 -1.4974
rclavicle -4.27387e-015 -9.14409e-015
rhumerus -26.5665 -28.4546 -56.5838
rradius 6.96121
rwrist 59.2858
rhand -17.6875 15.0038
rfingers 7.12502
rthumb 8.57196 -14.8022
lclavicle -4.27387e-015 -9.14409e-015
lhumerus -53.469 16.3276 78.6329
lradius 20.6541
lwrist -23.5765
lhand 1.26997 12.7477
lfingers 7.12502
lthumb 26.8062 40.868
rfemur 151.726 -182.015 -167.613
rtibia 74.1787
rfoot -15.6099 -29.0842
rtoes 11.8052
lfemur -45.4941 -4.68497 -21.8041
ltibia 64.2931
lfoot -16.6586 20.9511
ltoes 2.95174
405
root 0.276428 15.1787 -0.845465 -3.68539 3.46537 -6.29724
lowerback 2.11442 3.51461 -1.98495
upperback 3.11179 4.64799 2.63268
thorax 1.63972 2.26358 3.77403
lowerneck -21.1781 -0.937298 3.91296
upperneck 31.5362 -2.22653 -1.66875
head 14.308 -0.689938 -1.75269
rclavicle 1.91827e-014 7.55382e-015
rhumerus -19.2008 -9.23037 -69.3991
rradius 9.01189
rwrist 39.3158
rhand -16.7741 17.4475
rfingers 7.12502
rthumb 9.45333 -12.3204
lclavicle 1.91827e-014 7.55382e-015
lhumerus -46.9097 15.8108 81.6653
lradius 21.9139
lwrist -20.8228
lhand -2.22292 12.5005
lfingers 7.12502
lthumb 23.4596 41.0902
rfemur 148.982 -183.752 -168.159
rtibia 72.1556
rfoot -19.1963 -31.299
rtoes 17.9602
lfemur -43.822 -4.32896 -21.0766
ltibia 64.7928
lfoot -16.8086 19.5773
ltoes 1.83995
406
root 0.283963 15.207 -0.698862 -4.70468 3.99054 -6.98581
lowerback 3.5711 3.2768 -1.05584
upperback 3.02902 4.33868 3.15083
thorax 0.792749 2.13447 3.69876
lowerneck -20.389 -0.951479 3.82171
upperneck 32.2422 -2.11471 -1.83997
head 14.4504 -0.662555 -1.78974
rclavicle 1.39522e-014 -5.36719e-015
rhumerus -16.1242 11.9108 -77.8797
rradius 13.3163
rwrist 19.5604
rhand -14.0897 16.9505
rfingers 7.12502
rthumb 12.0426 -12.683
lclavicle 1.39522e-014 -5.36719e-015
lhumerus -41.838 13.9001 84.524
lradius 24.2807
lwrist -17.6427
lhand -6.36163 12.6041
lfingers 7.12502
lthumb 19.4847 41.6478
rfemur 146.074 -185.165 -169.198
rtibia 69.4635
rfoot -22.6198 -33.1412
rtoes 22.1754
lfemur -42.4751 -3.72358 -20.5196
ltibia 65.1996
lfoot -16.7126 18.4654
ltoes 0.0153151
407
root 0.288609 15.2437 -0.554556 -5.60634 4.03688 -7.23789
lowerback 4.74683 3.25364 -0.505717
upperback 3.06472 4.33453 3.55544
thorax 0.1844 2.14399 3.738
lowerneck -19.5752 -0.981391 3.50412
upperneck 32.9402 -2.0243 -1.77587
head 14.5919 -0.638692 -1.6947
rclavicle -5.22431e-015 6.55989e-015
rhumerus -12.9879 23.1963 -81.4437
rradius 17.3604
rwrist 10.2438
rhand -12.3727 18.1301
rfingers 7.12502
rthumb 13.6978 -11.3991
lclavicle -5.22431e-015 6.55989e-015
lhumerus -36.6092 11.8926 86.3964
lradius 27.271
lwrist -13.6426
lhand -8.61183 13.1423
lfingers 7.12502
lthumb 17.3201 42.3905
rfemur 142.958 -186.645 -170.897
rtibia 66.3999
rfoot -25.308 -34.6464
rtoes 24.5942
lfemur -41.1029 -2.67017 -20.3848
ltibia 65.5361
lfoot -16.8578 17.4663
ltoes -0.288936
408
root 0.304646 15.301 -0.375873 -6.85835 4.11772 -7.46206
lowerback 5.54378 3.21557 0.186089
upperback 3.41648 4.31843 3.9178
thorax 0.128259 2.14023 3.69285
lowerneck -18.8108 -0.94308 3.43274
upperneck 33.588 -1.80675 -2.03866
head 14.719 -0.577838 -1.75415
rclavicle -3.60406e-014 -7.65321e-015
rhumerus -8.92227 30.1924 -82.8083
rradius 20.9648
rwrist 6.88593
rhand -11.4869 19.4518
rfingers 7.12502
rthumb 14.5514 -10.0178
lclavicle -3.60406e-014 -7.65321e-015
lhumerus -31.3183 8.47819 87.8035
lradius 29.6276
lwrist -10.6155
lhand -11.9095 12.182
lfingers 7.12502
lthumb 14.1442 41.6805
rfemur 140.794 -187.892 -172.688
rtibia 62.7194
rfoot -28.0489 -35.682
rtoes 28.8886
lfemur -39.1384 -1.65829 -20.3055
ltibia 65.9158
lfoot -17.1959 16.4626
ltoes 0.54741
409
root 0.27199 15.3473 -0.287528 -7.23384 5.49324 -7.69278
lowerback 6.72 2.76889 0.249128
upperback 3.35843 3.76219 4.33989
thorax -0.572097 1.86566 4.0681
lowerneck -18.7103 -0.717391 3.64534
upperneck 34.2484 -1.28407 -2.72104
head 15.0119 -0.410816 -1.99634
rclavicle -3.7502e-014 -5.52621e-014
rhumerus -3.56579 36.6373 -82.4621
rradius 24.4793
rwrist 4.62396
rhand -11.3156 22.7944
rfingers 7.12502
rthumb 14.7164 -6.66325
lclavicle -3.7502e-014 -5.52621e-014
lhumerus -25.7727 5.39145 88.1188
lradius 32.46
lwrist -8.696
lhand -13.184 11.9516
lfingers 7.12502
lthumb 12.9158 41.5319
rfemur 137.224 -187.725 -174.929
rtibia 59.3879
rfoot -30.0204 -35.9227
rtoes 28.9372
lfemur -38.9256 -1.37819 -20.2835
ltibia 66.2934
lfoot -16.0742 15.7089
ltoes -0.672083
410
root 0.243249 15.365 -0.169869 -7.77546 6.2512 -7.46084
lowerback 7.92364 2.59972 0.13327
upperback 3.40159 3.56428 4.60108
thorax -1.2025 1.76913 4.36878
lowerneck -18.6538 -0.421254 3.94956
upperneck 34.8153 -0.644959 -3.49467
head 15.2888 -0.197606 -2.27559
rclavicle -1.54555e-014 -1.35174e-014
rhumerus 3.02303 42.147 -80.377
rradius 27.7744
rwrist 3.87337
rhand -10.7898 24.6236
rfingers 7.12502
rthumb 15.223 -4.79637
lclavicle -1.54555e-014 -1.35174e-014
lhumerus -20.2563 2.24955 87.4816
lradius 35.3571
lwrist -8.23586
lhand -15.6374 13.0882
lfingers 7.12502
lthumb 10.5499 42.8035
rfemur 134.023 -187.975 -177.83
rtibia 55.8077
rfoot -31.913 -35.7666
rtoes 31.3751
lfemur -38.4297 -0.440763 -20.7745
ltibia 66.6074
lfoot -15.0879 15.4224
ltoes -2.15525
411
root 0.213033 15.4141 -0.0478992 -8.55801 6.62769 -7.35562
lowerback 9.29207 2.67097 0.13807
upperback 3.40836 3.70327 4.85514
thorax -1.97712 1.84408 4.55914
lowerneck -18.1443 -0.208944 4.01969
upperneck 35.1975 -0.155913 -3.89545
head 15.3776 -0.0258035 -2.37396
rclavicle 3.39176e-014 3.02153e-014
rhumerus 9.98261 45.402 -77.5676
rradius 30.7218
rwrist 5.83047
rhand -11.394 26.111
rfingers 7.12502
rthumb 14.641 -3.35215
lclavicle 3.39176e-014 3.02153e-014
lhumerus -14.8211 -1.10828 85.9296
lradius 38.0185
lwrist -8.29329
lhand -17.1794 15.3534
lfingers 7.12502
lthumb 9.06223 45.1388
rfemur 130.963 -189.213 -181.05
rtibia 52.3208
rfoot -35.418 -34.7351
rtoes 38.3008
lfemur -37.4024 1.13243 -21.0191
ltibia 66.7281
lfoot -14.955 14.7877
ltoes -0.820826
412
root 0.189487 15.5025 0.0517762 -9.28852 7.21609 -7.3403
lowerback 10.631 2.73225 0.264997
upperback 3.38511 3.84361 5.03954
thorax -2.75352 1.91962 4.60725
lowerneck -17.4603 -0.0112312 4.16114
upperneck 35.2291 0.231091 -4.1421
head 15.2543 0.13144 -2.42587
rclavicle -1.78906e-014 -5.1684e-015
rhumerus 17.4509 47.2416 -74.2566
rradius 33.1835
rwrist 8.11417
rhand -12.7697 27.8737
rfingers 7.12502
rthumb 13.3152 -1.68091
lclavicle -1.78906e-014 -5.1684e-015
lhumerus -9.04646 -4.19154 83.4014
lradius 40.7327
lwrist -8.70826
lhand -17.4806 16.8917
lfingers 7.12502
lthumb 8.77154 46.6894
rfemur 127.988 -190.603 -184.814
rtibia 48.9365
rfoot -37.3084 -34.8258
rtoes 40.7227
lfemur -36.0489 2.51854 -21.1647
ltibia 66.2948
lfoot -15.2526 13.7874
ltoes 3.18402
413
root 0.152093 15.5438 0.167193 -9.50609 8.15626 -6.55371
lowerback 11.5103 2.8488 -0.346728
upperback 3.40691 3.95289 4.97586
thorax -3.25799 1.97938 4.83576
lowerneck -16.8221 0.160659 4.4416
upperneck 34.7484 0.555545 -4.49943
head 14.8976 0.258844 -2.54563
rclavicle 2.02015e-014 1.90833e-014
rhumerus 25.8997 47.9677 -69.8973
rradius 35.4329
rwrist 8.81948
rhand -13.1945 29.875
rfingers 7.12502
rthumb 12.9057 0.294099
lclavicle 2.02015e-014 1.90833e-014
lhumerus -3.08799 -7.63294 80.164
lradius 42.8245
lwrist -7.20541
lhand -20.0381 14.9749
lfingers 7.12502
lthumb 6.30299 44.8611
rfemur 124.723 -191.869 -190.264
rtibia 45.4576
rfoot -38.4831 -36.1926
rtoes 37.3288
lfemur -35.0348 3.65564 -22.1829
ltibia 65.6465
lfoot -15.2957 12.6567
ltoes 6.7006
414
root 0.134841 15.6808 0.248012 -9.66246 9.18069 -5.9929
lowerback 11.7462 3.07061 -0.626275
upperback 3.80633 4.20179 4.85624
thorax -3.00173 2.09769 4.82957
lowerneck -17.4897 0.296156 3.96214
upperneck 34.593 0.679399 -3.89478
head 14.9854 0.330423 -2.1863
rclavicle 6.67916e-014 -2.50469e-014
rhumerus 35.2156 47.8065 -64.3391
rradius 38.0553
rwrist 6.3974
rhand -12.872 29.4797
rfingers 7.12502
rthumb 13.2165 -0.0813361
lclavicle 6.67916e-014 -2.50469e-014
lhumerus 4.19395 -9.86799 76.2135
lradius 44.0793
lwrist -7.53653
lhand -21.0242 19.1538
lfingers 7.12502
lthumb 5.35102 49.0663
rfemur 121.376 -194.739 -197.454
rtibia 42.5577
rfoot -42.8821 -36.7025
rtoes 40.7944
lfemur -33.6457 4.92017 -22.9346
ltibia 64.1089
lfoot -14.3478 11.5278
ltoes 7.27516
415
root 0.102615 15.7967 0.351658 -9.8413 10.4821 -5.56564
lowerback 11.5992 3.20847 -0.924398
upperback 4.40999 4.32604 4.72219
thorax -2.31227 2.14659 4.86238
lowerneck -18.4345 0.423804 3.54238
upperneck 34.2958 0.791783 -3.37978
head 15.0679 0.388356 -1.87515
rclavicle -2.01766e-014 3.37934e-014
rhumerus 43.921 45.9746 -59.6736
rradius 40.3145
rwrist 4.31046
rhand -11.7194 31.5076
rfingers 7.12502
rthumb 14.3274 2.02199
lclavicle -2.01766e-014 3.37934e-014
lhumerus 12.011 -11.7014 71.4959
lradius 44.8592
lwrist -6.80575
lhand -20.1359 17.4042
lfingers 7.12502
lthumb 6.20859 47.2932
rfemur 117.724 -199.019 -206.984
rtibia 39.9802
rfoot -49.146 -38.0623
rtoes 47.0217
lfemur -32.267 6.16958 -23.3964
ltibia 62.4134
lfoot -12.6842 10.2945
ltoes 4.6408
416
root 0.0878713 15.9088 0.447966 -9.75124 11.8932 -5.00292
lowerback 12.1182 3.31536 -0.855766
upperback 4.31494 4.46686 4.21877
thorax -2.66253 2.22174 4.24275
lowerneck -19.0766 0.469912 3.19602
upperneck 34.3483 0.698312 -2.63192
head 15.234 0.411084 -1.51988
rclavicle -6.26172e-015 -2.06736e-014
rhumerus 50.7101 44.1483 -56.3535
rradius 43.225
rwrist 0.607119
rhand -10.8665 29.6069
rfingers 7.12502
rthumb 15.1491 0.181362
lclavicle -6.26172e-015 -2.06736e-014
lhumerus 19.1646 -14.1003 65.5366
lradius 45.8004
lwrist -5.04078
lhand -22.6884 18.7077
lfingers 7.12502
lthumb 3.74404 48.6545
rfemur 112.9 -204 -219.548
rtibia 38.3795
rfoot -58.1423 -40.8683
rtoes 47.2311
lfemur -30.8912 6.95132 -24.0661
ltibia 60.3956
lfoot -11.1962 9.05426
ltoes 2.84155
417
root 0.0656359 16 0.590884 -9.35532 13.625 -4.05787
lowerback 12.5638 3.507 -1.10524
upperback 3.9489 4.67333 3.47229
thorax -3.26217 2.33182 3.53117
lowerneck -19.5543 0.417589 3.23273
upperneck 34.3264 0.407405 -2.11293
head 15.3228 0.371187 -1.36111
rclavicle -2.02263e-014 -2.70347e-014
rhumerus 55.4645 41.4629 -54.7777
rradius 45.9465
rwrist -2.07832
rhand -10.5122 28.5278
rfingers 7.12502
rthumb 15.4904 -0.871608
lclavicle -2.02263e-014 -2.70347e-014
lhumerus 25.9999 -15.4852 59.7461
lradius 47.0663
lwrist -5.0495
lhand -22.4255 19.5422
lfingers 7.12502
lthumb 3.99786 49.4844
rfemur 106.451 -209.777 -236.765
rtibia 37.2331
rfoot -75.9101 -34.3788
rtoes 52.4994
lfemur -29.4961 7.06308 -25.0897
ltibia 58.5293
lfoot -10.3816 7.66853
ltoes 2.49113
418
root 0.0473013 16.105 0.747934 -8.71216 15.4243 -2.6755
lowerback 12.7196 3.74845 -1.8704
upperback 3.62567 4.8639 2.61135
thorax -3.68587 2.43311 3.00755
lowerneck -19.8124 0.358332 3.64393
upperneck 33.9999 0.149165 -2.08437
head 15.2191 0.319702 -1.46403
rclavicle -3.11595e-014 -1.61016e-014
rhumerus 59.5045 38.5909 -53.7128
rradius 48.6396
rwrist -4.60599
rhand -10.235 28.7009
rfingers 7.12502
rthumb 15.7573 -0.677665
lclavicle -3.11595e-014 -1.61016e-014
lhumerus 32.368 -14.7076 55.428
lradius 47.5049
lwrist -7.13861
lhand -23.2331 20.2799
lfingers 7.12502
lthumb 3.21798 50.2354
rfemur 101.422 -211.99 -251.435
rtibia 36.6255
rfoot -86.9853 -30.758
rtoes 53.1682
lfemur -28.1051 6.77822 -26.5132
ltibia 56.7817
lfoot -9.81902 6.35841
ltoes 3.17702
